<svg xmlns="http://www.w3.org/2000/svg" xmlns:xlink="http://www.w3.org/1999/xlink" width="100" zoomAndPan="magnify" viewBox="0 0 75 74.999997" height="100" preserveAspectRatio="xMidYMid meet" version="1.0"><defs><clipPath id="e0f32401d3"><path d="M 12.488281 12.488281 L 62.738281 12.488281 L 62.738281 62.738281 L 12.488281 62.738281 Z M 12.488281 12.488281 " clip-rule="nonzero"/></clipPath></defs><g clip-path="url(#e0f32401d3)"><path fill="#5825db" d="M 55.40625 53.441406 C 55.40625 54.679688 54.363281 55.683594 53.074219 55.683594 C 51.785156 55.683594 50.742188 54.679688 50.742188 53.441406 L 50.742188 34.40625 C 50.742188 33.164062 51.785156 32.160156 53.074219 32.160156 C 54.363281 32.160156 55.40625 33.164062 55.40625 34.40625 Z M 23.972656 34.40625 C 23.972656 33.164062 22.929688 32.160156 21.640625 32.160156 C 20.351562 32.160156 19.308594 33.164062 19.308594 34.40625 L 19.308594 53.441406 C 19.308594 54.679688 20.351562 55.683594 21.640625 55.683594 C 22.929688 55.683594 23.972656 54.679688 23.972656 53.441406 Z M 34.453125 34.40625 C 34.453125 33.164062 33.40625 32.160156 32.121094 32.160156 C 30.832031 32.160156 29.785156 33.164062 29.785156 34.40625 L 29.785156 53.441406 C 29.785156 54.679688 30.832031 55.683594 32.121094 55.683594 C 33.40625 55.683594 34.453125 54.679688 34.453125 53.441406 Z M 44.929688 34.40625 C 44.929688 33.164062 43.886719 32.160156 42.597656 32.160156 C 41.308594 32.160156 40.265625 33.164062 40.265625 34.40625 L 40.265625 53.441406 C 40.265625 54.679688 41.308594 55.683594 42.597656 55.683594 C 43.886719 55.683594 44.929688 54.679688 44.929688 53.441406 Z M 59.757812 22.804688 L 37.507812 12.515625 L 15.253906 22.804688 Z M 61.476562 27.550781 C 61.476562 26.386719 60.535156 25.445312 59.378906 25.445312 L 15.636719 25.445312 C 14.476562 25.445312 13.539062 26.386719 13.539062 27.550781 C 13.539062 28.714844 14.476562 29.65625 15.636719 29.65625 L 59.378906 29.65625 C 60.535156 29.65625 61.476562 28.714844 61.476562 27.550781 Z M 62.527344 60.25 C 62.527344 59.035156 61.546875 58.050781 60.335938 58.050781 L 14.679688 58.050781 C 13.46875 58.050781 12.488281 59.035156 12.488281 60.25 C 12.488281 61.464844 13.46875 62.449219 14.679688 62.449219 L 60.335938 62.449219 C 61.546875 62.449219 62.527344 61.464844 62.527344 60.25 Z M 62.527344 60.25 " fill-opacity="1" fill-rule="nonzero"/></g></svg>