<svg xmlns="http://www.w3.org/2000/svg" xmlns:xlink="http://www.w3.org/1999/xlink" width="100" zoomAndPan="magnify" viewBox="0 0 75 74.999997" height="100" preserveAspectRatio="xMidYMid meet" version="1.0"><defs><clipPath id="9e66cd4713"><path d="M 13.472656 22 L 59 22 L 59 57.878906 L 13.472656 57.878906 Z M 13.472656 22 " clip-rule="nonzero"/></clipPath><clipPath id="f1b94e058f"><path d="M 44 35 L 61.472656 35 L 61.472656 46 L 44 46 Z M 44 35 " clip-rule="nonzero"/></clipPath><clipPath id="b01574040f"><path d="M 26 17.378906 L 47 17.378906 L 47 28 L 26 28 Z M 26 17.378906 " clip-rule="nonzero"/></clipPath></defs><path fill="#5825db" d="M 45.417969 34.839844 C 45.792969 34.59375 46.183594 34.378906 46.601562 34.199219 C 46.183594 34.371094 45.792969 34.582031 45.417969 34.839844 Z M 44.363281 35.699219 C 44.523438 35.550781 44.695312 35.390625 44.875 35.242188 C 44.695312 35.382812 44.523438 35.539062 44.363281 35.699219 Z M 45.417969 34.839844 C 45.792969 34.59375 46.183594 34.378906 46.601562 34.199219 C 46.183594 34.371094 45.792969 34.582031 45.417969 34.839844 Z M 44.363281 35.699219 C 44.523438 35.550781 44.695312 35.390625 44.875 35.242188 C 44.695312 35.382812 44.523438 35.539062 44.363281 35.699219 Z M 44.363281 35.699219 " fill-opacity="1" fill-rule="nonzero"/><g clip-path="url(#9e66cd4713)"><path fill="#5825db" d="M 42.375 39.90625 C 42.351562 40.128906 42.34375 40.351562 42.34375 40.585938 C 42.34375 44.398438 45.449219 47.507812 49.261719 47.507812 L 58.203125 47.507812 L 58.203125 52.382812 C 58.203125 55.257812 55.875 57.589844 53 57.589844 L 18.695312 57.589844 C 15.824219 57.589844 13.492188 55.257812 13.492188 52.382812 L 13.492188 27.949219 C 13.492188 25.074219 15.824219 22.746094 18.695312 22.746094 L 29.160156 22.746094 L 21.996094 27.140625 L 20.039062 27.140625 C 19.453125 27.140625 18.972656 27.621094 18.972656 28.207031 C 18.972656 28.792969 19.453125 29.269531 20.039062 29.269531 L 51.570312 29.269531 C 52.15625 29.269531 52.636719 28.792969 52.636719 28.207031 C 52.636719 27.621094 52.15625 27.140625 51.570312 27.140625 L 49.050781 27.140625 L 47.453125 22.746094 L 53 22.746094 C 55.875 22.746094 58.203125 25.074219 58.203125 27.949219 L 58.203125 33.679688 L 49.261719 33.679688 C 48.324219 33.679688 47.429688 33.859375 46.601562 34.199219 C 46.183594 34.378906 45.792969 34.59375 45.417969 34.839844 C 45.226562 34.964844 45.046875 35.09375 44.875 35.242188 C 44.695312 35.390625 44.523438 35.550781 44.363281 35.710938 C 43.546875 36.53125 42.960938 37.511719 42.640625 38.574219 C 42.511719 39 42.417969 39.449219 42.375 39.90625 Z M 42.375 39.90625 " fill-opacity="1" fill-rule="nonzero"/></g><path fill="#5825db" d="M 51.179688 40.585938 C 51.179688 40.726562 51.152344 40.863281 51.097656 40.996094 C 51.042969 41.125 50.964844 41.238281 50.867188 41.339844 C 50.765625 41.441406 50.652344 41.515625 50.519531 41.570312 C 50.390625 41.625 50.253906 41.652344 50.113281 41.652344 C 49.972656 41.652344 49.835938 41.625 49.707031 41.570312 C 49.574219 41.515625 49.460938 41.441406 49.359375 41.339844 C 49.261719 41.238281 49.183594 41.125 49.128906 40.996094 C 49.074219 40.863281 49.050781 40.726562 49.050781 40.585938 C 49.050781 40.445312 49.074219 40.308594 49.128906 40.179688 C 49.183594 40.050781 49.261719 39.933594 49.359375 39.835938 C 49.460938 39.734375 49.574219 39.65625 49.707031 39.605469 C 49.835938 39.550781 49.972656 39.523438 50.113281 39.523438 C 50.253906 39.523438 50.390625 39.550781 50.519531 39.605469 C 50.652344 39.65625 50.765625 39.734375 50.867188 39.835938 C 50.964844 39.933594 51.042969 40.050781 51.097656 40.179688 C 51.152344 40.308594 51.179688 40.445312 51.179688 40.585938 Z M 51.179688 40.585938 " fill-opacity="1" fill-rule="nonzero"/><g clip-path="url(#f1b94e058f)"><path fill="#5825db" d="M 61.027344 35.808594 L 49.261719 35.808594 C 47.972656 35.808594 46.769531 36.308594 45.875 37.203125 C 44.972656 38.117188 44.472656 39.308594 44.472656 40.585938 C 44.472656 43.226562 46.621094 45.378906 49.261719 45.378906 L 61.027344 45.378906 C 61.292969 45.378906 61.503906 45.164062 61.503906 44.898438 L 61.503906 36.285156 C 61.503906 36.019531 61.292969 35.808594 61.027344 35.808594 Z M 50.113281 43.78125 C 48.355469 43.78125 46.917969 42.355469 46.917969 40.585938 C 46.917969 38.820312 48.355469 37.394531 50.113281 37.394531 C 51.871094 37.394531 53.308594 38.832031 53.308594 40.585938 C 53.308594 42.34375 51.871094 43.78125 50.113281 43.78125 Z M 50.113281 43.78125 " fill-opacity="1" fill-rule="nonzero"/></g><g clip-path="url(#b01574040f)"><path fill="#5825db" d="M 46.78125 27.140625 L 26.0625 27.140625 L 33.484375 22.585938 L 41.585938 17.613281 C 41.9375 17.398438 42.363281 17.355469 42.746094 17.496094 C 43.128906 17.625 43.4375 17.921875 43.578125 18.304688 L 44.917969 22 Z M 46.78125 27.140625 " fill-opacity="1" fill-rule="nonzero"/></g></svg>